<svg xmlns="http://www.w3.org/2000/svg" viewBox="0 0 100 100">
  <defs>
    <linearGradient id="chipGradient" x1="0%" y1="0%" x2="100%" y2="100%">
      <stop offset="0%" style="stop-color:#2D3748;stop-opacity:1" />
      <stop offset="100%" style="stop-color:#1A202C;stop-opacity:1" />
    </linearGradient>
    <radialGradient id="highlightGradient" cx="30%" cy="30%">
      <stop offset="0%" style="stop-color:#4A5568;stop-opacity:0.8" />
      <stop offset="100%" style="stop-color:#2D3748;stop-opacity:0" />
    </radialGradient>
  </defs>
  
  <!-- Outer ring -->
  <circle cx="50" cy="50" r="48" fill="url(#chipGradient)" stroke="#F59E0B" stroke-width="3"/>
  
  <!-- Inner segments (tactical pattern) -->
  <g stroke="#F59E0B" stroke-width="2" fill="none">
    <path d="M 50 10 L 50 20" />
    <path d="M 73.66 16.34 L 67.68 22.32" />
    <path d="M 90 50 L 80 50" />
    <path d="M 83.66 73.66 L 77.68 67.68" />
    <path d="M 50 90 L 50 80" />
    <path d="M 16.34 73.66 L 22.32 67.68" />
    <path d="M 10 50 L 20 50" />
    <path d="M 16.34 26.34 L 22.32 32.32" />
  </g>
  
  <!-- Center circle -->
  <circle cx="50" cy="50" r="25" fill="#1A202C" stroke="#F59E0B" stroke-width="2"/>
  
  <!-- Inner detail ring -->
  <circle cx="50" cy="50" r="20" fill="none" stroke="#4A5568" stroke-width="1"/>
  
  <!-- Tactical "T" for Tarkov -->
  <g fill="#F59E0B">
    <rect x="42" y="38" width="16" height="3" />
    <rect x="48.5" y="38" width="3" height="18" />
  </g>
  
  <!-- Small tactical dots -->
  <circle cx="50" cy="15" r="2.5" fill="#F59E0B"/>
  <circle cx="70" cy="20" r="2.5" fill="#F59E0B"/>
  <circle cx="85" cy="50" r="2.5" fill="#F59E0B"/>
  <circle cx="80" cy="70" r="2.5" fill="#F59E0B"/>
  <circle cx="50" cy="85" r="2.5" fill="#F59E0B"/>
  <circle cx="20" cy="70" r="2.5" fill="#F59E0B"/>
  <circle cx="15" cy="50" r="2.5" fill="#F59E0B"/>
  <circle cx="30" cy="20" r="2.5" fill="#F59E0B"/>
  
  <!-- Highlight effect -->
  <ellipse cx="35" cy="35" rx="15" ry="12" fill="url(#highlightGradient)" opacity="0.4"/>
</svg>

